/* XPM */
static char * closeA_xpm[] = {
"28 42 3 1",
" 	c #FFFFFF",
".	c #000000",
"+	c #ADADAD",
"                            ",
"                            ",
"                            ",
"                            ",
"                            ",
"           ..      ..       ",
"           ...    ...       ",
"            ...  ...        ",
"             ......         ",
"              ....          ",
"              ....          ",
"             ......         ",
"            ...  ...        ",
"           ...    ...       ",
"           ..      ..       ",
"                            ",
"                            ",
"                            ",
"                            ",
"                            ",
"                            ",
"                            ",
"                            ",
"             ++++++         ",
"           ++++++++++       ",
"          ++++++++++++      ",
"         ++..++++++..++     ",
"         ++...++++...++     ",
"        ++++...++...++++    ",
"        +++++......+++++    ",
"        ++++++....++++++    ",
"        ++++++....++++++    ",
"        +++++......+++++    ",
"        ++++...++...++++    ",
"         ++...++++...++     ",
"         ++..++++++..++     ",
"          ++++++++++++      ",
"           ++++++++++       ",
"             ++++++         ",
"                            ",
"                            ",
"                            "};
