/* XPM */
static char * depthA_xpm[] = {
"20 42 6 1",
" 	c #FFFFFF",
".	c #000000",
"+	c #A7A7FF",
"@	c #CFCFFF",
"#	c #9A9ACF",
"$	c #65659A",
"                    ",
"                    ",
"                    ",
"                    ",
"        ....        ",
"       ......       ",
"      ...  ...      ",
"     ...    ...     ",
"     ..      ..     ",
"                    ",
"                    ",
"     ..      ..     ",
"     ...    ...     ",
"      ...  ...      ",
"       ......       ",
"        ....        ",
"                    ",
"                    ",
"                    ",
"                    ",
"++++++++++++++++++++",
"@@@@@@@@@@@@@@@@@@@@",
"@@@@@@@@@@@@@@@@@@@@",
"@@@@@@@@@@@@@@@@@@@@",
"@@@@@@...........@@@",
"@@@@@@........... @@",
"@@@@@@..#######.. @@",
"@@@@@@..#######.. @@",
"@@@@@@..#######.. @@",
"@@......#######.. @@",
"@@......#######.. @@",
"@@..##........... @@",
"@@..##........... @@",
"@@..##            @@",
"@@..#######.. @@@@@@",
"@@..#######.. @@@@@@",
"@@........... @@@@@@",
"@@........... @@@@@@",
"@@@           @@@@@@",
"@@@@@@@@@@@@@@@@@@@@",
"@@@@@@@@@@@@@@@@@@@@",
"$$$$$$$$$$$$$$$$$$$$"};
