/* XPM */
static char * depthA_xpm[] = {
"20 42 4 1",
" 	c #FFFFFF",
".	c #000000",
"+	c #ADADAD",
"@	c #AEAEAE",
"                    ",
"                    ",
"                    ",
"                    ",
"                    ",
"                    ",
"        ....        ",
"       ......       ",
"      ...  ...      ",
"     ...    ...     ",
"     ...    ...     ",
"      ...  ...      ",
"       ......       ",
"        ....        ",
"                    ",
"                    ",
"                    ",
"                    ",
"                    ",
"                    ",
"                    ",
"                    ",
"                    ",
"       ++++++       ",
"     ++++++++++     ",
"    +++++++@++++    ",
"   ++++++++++++++   ",
"   +++++....+++++   ",
"  +++++......+++++  ",
"  ++++...++...++++  ",
"  +++...++++...+++  ",
"  +++...++++...+++  ",
"  ++++...++...++++  ",
"  +++++......+++++  ",
"   ++@++....+++++   ",
"   ++++++++++++++   ",
"    ++++++++++++    ",
"     ++++++++++     ",
"       ++++++       ",
"                    ",
"                    ",
"                    "};
