/* XPM */
static char * depthA_xpm[] = {
"20 42 5 1",
" 	c #FFFFFF",
".	c #000000",
"+	c #ADADAD",
"@	c #AEAEAE",
"#	c #B0B0B0",
"                    ",
"                    ",
"                    ",
"                    ",
"                    ",
"                    ",
"        ....        ",
"       ......       ",
"      ...  ...      ",
"     ...    ...     ",
"     ...    ...     ",
"      ...  ...      ",
"       ......       ",
"        ....        ",
"                    ",
"                    ",
"                    ",
"                    ",
"                    ",
"                    ",
"                    ",
"                    ",
"                    ",
"                    ",
"                    ",
"        +++@        ",
"      ++++++++      ",
"     +++....+++     ",
"     ++......++     ",
"    ++...++...++    ",
"    #...++++...#    ",
"    #...++++...#    ",
"    ++...++...++    ",
"     ++......++     ",
"     @++....+++     ",
"      ++++++++      ",
"        +##+        ",
"                    ",
"                    ",
"                    ",
"                    ",
"                    "};
