/* XPM */
static char *dframeITL_xpm[] = {
    "5 34 3 1",
    " 	c None",
    ".	c #ffffff",
    "+	c #ffffff",
    "     ",
    "     ",
    "     ",
    ".....",
    ".++++",
    ".++++",
    ".++++",
    ".++++",
    ".++++",
    ".++++",
    ".++++",
    ".++++",
    ".++++",
    ".++++",
    ".++++",
    ".++++",
    ".++++",
    ".++++",
    ".++++",
    ".++++",
    ".++++",
    ".++++",
    ".++++",
    ".++++",
    ".++++",
    ".++++",
    ".++++",
    ".++++",
    ".++++",
    ".++++",
    ".++++",
    ".++++",
    ".++++",
    ".++++"};
