/* XPM */
static char *frameIT_xpm[] = {
    "1 34 3 1",
    " 	c None",
    ".	c #ffffff",
    "+	c #ffffff",
    " ",
    " ",
    " ",
    ".",
    "+",
    "+",
    "+",
    "+",
    "+",
    "+",
    "+",
    "+",
    "+",
    "+",
    "+",
    "+",
    "+",
    "+",
    "+",
    "+",
    "+",
    "+",
    "+",
    "+",
    "+",
    "+",
    "+",
    "+",
    "+",
    "+",
    "+",
    "+",
    "+",
    "+"};
