/* XPM */
static char *frameABL_xpm[] = {
    "5 5 3 1",
    " 	c #ffffff",
    ".	c #ffffff",
    "+	c #ffffff",
    " .+++",
    " .+++",
    " ..++",
    " ....",
    "     "};
