/* XPM */
static char *frameIBR_xpm[] = {
    "5 5 3 1",
    " 	c #ffffff",
    ".	c #ffffff",
    "+	c #ffffff",
    "...+ ",
    "...+ ",
    "..++ ",
    "++++ ",
    "     "};
