/* XPM */
static char *frameITR_xpm[] = {
    "5 34 3 1",
    " 	c None",
    ".	c #ffffff",
    "+	c #ffffff",
    "     ",
    "     ",
    "     ",
    "     ",
    "..   ",
    "++.  ",
    "+++. ",
    "+++. ",
    "++++.",
    "++++.",
    "++++.",
    "++++.",
    "++++.",
    "++++.",
    "++++.",
    "++++.",
    "++++.",
    "++++.",
    "++++.",
    "++++.",
    "++++.",
    "++++.",
    "++++.",
    "++++.",
    "++++.",
    "++++.",
    "++++.",
    "++++.",
    "++++.",
    "++++.",
    "++++.",
    "++++.",
    "++++.",
    "++++."};
