/* XPM */
static char * minimizeA_xpm[] = {
"20 42 5 1",
" 	c #FFFFFF",
".	c #000000",
"+	c #AEAEAE",
"@	c #ADADAD",
"#	c #AFAFAF",
"                    ",
"                    ",
"                    ",
"                    ",
"                    ",
"                    ",
"                    ",
"                    ",
"                    ",
"      ........      ",
"      ........      ",
"                    ",
"                    ",
"                    ",
"                    ",
"                    ",
"                    ",
"                    ",
"                    ",
"                    ",
"                    ",
"                    ",
"                    ",
"        ++@++       ",
"      @@@@@@@@@     ",
"     @@@@@@@@@@@    ",
"    @@@@@@@@@@@@@   ",
"    @@@@@@@@@@@@@   ",
"   @@@@@@@@@@@@@@@  ",
"   #@@@@@@@@@@@@@@  ",
"   @@@........@@@@  ",
"   @@@........@@@@  ",
"   #@@@@@@@@@@@@@@  ",
"   @@@@@@@@@@@@@@#  ",
"    @@@@@@@@@@@@@   ",
"    @@@@@@@@@@@@@   ",
"     @@@@@@@@@@@    ",
"      @@@@@@@@@     ",
"        @+@+@       ",
"                    ",
"                    ",
"                    "};
