/* XPM */
static char * rolldownA_xpm[] = {
"20 42 4 1",
" 	c #FFFFFF",
".	c #000000",
"+	c #AEAEAE",
"@	c #ADADAD",
"                    ",
"                    ",
"                    ",
"                    ",
"                    ",
"      .........     ",
"      .........     ",
"                    ",
"                    ",
"      ..     ..     ",
"      ...   ...     ",
"       .......      ",
"        .....       ",
"         ...        ",
"                    ",
"                    ",
"                    ",
"                    ",
"                    ",
"                    ",
"                    ",
"                    ",
"                    ",
"                    ",
"        +@@@+       ",
"      +@@@@@@@+     ",
"     @@@@@@@@@@@    ",
"    @@.........@@   ",
"    @@.........@@   ",
"   +@@@@@@@@@@@@@+  ",
"   @@@@@@@@@@@@@@@  ",
"   @@@..@@@@@..@@@  ",
"   @@@...@@@...@@@  ",
"   +@@@.......@@@+  ",
"    @@@@.....@@@@   ",
"    +@@@@...@@@@+   ",
"     @@@@@@@@@@@    ",
"      +@@@@@@@+     ",
"        +@@@+       ",
"                    ",
"                    ",
"                    "};
