/* XPM */
static char * close_xpm[] = {
"28 42 33 1",
" 	c #000000",
".	c #F2F2F2",
"+	c #EFEFEF",
"@	c #2D2D2D",
"#	c #DEDEDE",
"$	c #FBFBFB",
"%	c #181818",
"&	c #DCDCDC",
"*	c #FFFFFF",
"=	c #F3F3F3",
"-	c #E0E0E0",
";	c #F1F1F1",
">	c #F4F4F4",
",	c #353535",
"'	c #DFDFDF",
")	c #E1E1E1",
"!	c #E2E2E2",
"~	c #777777",
"{	c #A8A8A8",
"]	c #BDBDBD",
"^	c #C5C5C5",
"/	c #5B5B5B",
"(	c #B6B6B6",
"_	c #C9C9C9",
":	c #727272",
"<	c #C4C4C4",
"[	c #B5B5B5",
"}	c #F5F5F5",
"|	c #F6F6F6",
"1	c #F7F7F7",
"2	c #A6A6A6",
"3	c #757575",
"4	c #575757",
"                            ",
"                            ",
"                            ",
"                            ",
"                            ",
"           .+@     #$%      ",
"           &*=@   -*;       ",
"            #*>, '*>,       ",
"             )*=!*=@        ",
"              '**>,         ",
"              '**>,         ",
"             )*=!*=@        ",
"            '*>, '*>,       ",
"           &*=@   )*;       ",
"           .+@     #$%      ",
"                            ",
"                            ",
"                            ",
"                            ",
"                            ",
"                            ",
"                            ",
"            ~{]^^]{~        ",
"          /(________(/      ",
"         :<__________<:     ",
"        /<____________</    ",
"        [__$}______}$__(    ",
"       ~___}*|____|*}___~   ",
"       {____|*1__|*1____2   ",
"       ]_____|*||*|_____]   ",
"       ^______|**1______^   ",
"       ^______|**1______^   ",
"       ]_____|*||*|_____]   ",
"       {____|*1__|*1____2   ",
"       ~___}*|____|*}___3   ",
"        [__$}______}$__(    ",
"        4<____________</    ",
"         :<__________<:     ",
"          /[________[/      ",
"            ~2]^^]23        ",
"                            ",
"                            "};
