/* XPM */
static char * hide_xpm[] = {
"20 42 57 1",
" 	c #000000",
".	c #FBFBFB",
"+	c #646464",
"@	c #B4B4B4",
"#	c #FDFDFD",
"$	c #727272",
"%	c #999999",
"&	c #E1E1E1",
"*	c #D7D7D7",
"=	c #676767",
"-	c #C1C1C1",
";	c #FFFFFF",
">	c #989898",
",	c #8E8E8E",
"'	c #CACACA",
")	c #CBCBCB",
"!	c #E0E0E0",
"~	c #FCFCFC",
"{	c #D8D8D8",
"]	c #EEEEEE",
"^	c #6A6A6A",
"/	c #E6E6E6",
"(	c #CCCCCC",
"_	c #E5E5E5",
":	c #E9E9E9",
"<	c #BFBFBF",
"[	c #B8B8B8",
"}	c #777777",
"|	c #A8A8A8",
"1	c #BDBDBD",
"2	c #C5C5C5",
"3	c #5B5B5B",
"4	c #B6B6B6",
"5	c #C9C9C9",
"6	c #C6C6C6",
"7	c #C4C4C4",
"8	c #DEDEDE",
"9	c #EBEBEB",
"0	c #B5B5B5",
"a	c #CECECE",
"b	c #ECECEC",
"c	c #F3F3F3",
"d	c #EFEFEF",
"e	c #D1D1D1",
"f	c #F7F7F7",
"g	c #D0D0D0",
"h	c #E7E7E7",
"i	c #F2F2F2",
"j	c #F0F0F0",
"k	c #FEFEFE",
"l	c #A6A6A6",
"m	c #F4F4F4",
"n	c #EDEDED",
"o	c #757575",
"p	c #F6F6F6",
"q	c #575757",
"r	c #CDCDCD",
"                    ",
"                    ",
"                    ",
"                    ",
"    .+              ",
"    @#$%&&&&*=      ",
"     -;>,'))!~=     ",
"     {]#^    !*     ",
"     /(@#^   (/     ",
"     /( @#^  (/     ",
"     /(  @#^ )/     ",
"     /(   @#^,_     ",
"     {!    @#>>     ",
"     =~!))))];$     ",
"      =*::::*<#=    ",
"              [.    ",
"                    ",
"                    ",
"                    ",
"                    ",
"                    ",
"                    ",
"      }|1221|}      ",
"    345555555543    ",
"   $655555555557$   ",
"  3895555555555573  ",
"  0a~]'bccccde5554  ",
" }55a~fgh999i#e555} ",
" |555jk]55555id555l ",
" 1555mn~]55559m5551 ",
" 2555m9a~]5559m5552 ",
" 2555m95a~]559m5552 ",
" 1555m955a~]5hm5551 ",
" |555di555a~]gb555l ",
" }555e#i999nkf'555o ",
"  0555edppppj~n554  ",
"  q7555555555a~973  ",
"   $7555555555rg$   ",
"    305555555503    ",
"      }l1221lo      ",
"                    ",
"                    "};
