/* XPM */
static char * maximize_xpm[] = {
"20 42 42 1",
" 	c #000000",
".	c #777777",
"+	c #DDDDDD",
"@	c #E9E9E9",
"#	c #DBDBDB",
"$	c #676767",
"%	c #757575",
"&	c #FEFEFE",
"*	c #EFEFEF",
"=	c #E1E1E1",
"-	c #F1F1F1",
";	c #FDFDFD",
">	c #5E5E5E",
",	c #F0F0F0",
"'	c #F5F5F5",
")	c #D1D1D1",
"!	c #E2E2E2",
"~	c #DADADA",
"{	c #F2F2F2",
"]	c #F7F7F7",
"^	c #CECECE",
"/	c #646464",
"(	c #FCFCFC",
"_	c #4B4B4B",
":	c #5B5B5B",
"<	c #D0D0D0",
"[	c #CDCDCD",
"}	c #A8A8A8",
"|	c #BDBDBD",
"1	c #C5C5C5",
"2	c #B6B6B6",
"3	c #C9C9C9",
"4	c #727272",
"5	c #C4C4C4",
"6	c #B5B5B5",
"7	c #F3F3F3",
"8	c #EEEEEE",
"9	c #FAFAFA",
"0	c #F6F6F6",
"a	c #A6A6A6",
"b	c #F4F4F4",
"c	c #575757",
"                    ",
"                    ",
"                    ",
"                    ",
"                    ",
"    .+@@@@@@@@#$    ",
"   %&*========-;>   ",
"   +,          ')   ",
"   @!          @!   ",
"   @!          @!   ",
"   @!          @!   ",
"   @!          @=   ",
"   ~{          ]^   ",
"   /;'@@@@@@@@](_   ",
"    :<========[_    ",
"                    ",
"                    ",
"                    ",
"                    ",
"                    ",
"                    ",
"                    ",
"      .}|11|}.      ",
"    :2333333332:    ",
"   45333333333354   ",
"  :53333333333335:  ",
"  63<*777777778<32  ",
" .3<&9000000009&<3. ",
" }3*93333333333983a ",
" |3bb3333333333bb3| ",
" 13bb3333333333bb31 ",
" 13bb3333333333bb31 ",
" |3bb3333333333bb3| ",
" }3*93333333333983a ",
" .3<&9777777779&<3% ",
"  63<8000000008<32  ",
"  c53333333333335:  ",
"   45333333333354   ",
"    :6333333336:    ",
"      .a|11|a%      ",
"                    ",
"                    "};
