/* XPM */
static char * maximize_xpm[] = {
"20 42 32 1",
" 	c #000000",
".	c #464646",
"+	c #EAEAEA",
"@	c #FEFEFE",
"#	c #FFFFFF",
"$	c #414141",
"%	c #F7F7F7",
"&	c #828282",
"*	c #848484",
"=	c #E9E9E9",
"-	c #868686",
";	c #F8F8F8",
">	c #777777",
",	c #A8A8A8",
"'	c #BDBDBD",
")	c #C5C5C5",
"!	c #5B5B5B",
"~	c #B6B6B6",
"{	c #C9C9C9",
"]	c #727272",
"^	c #C4C4C4",
"/	c #B5B5B5",
"(	c #CDCDCD",
"_	c #F6F6F6",
":	c #CCCCCC",
"<	c #FBFBFB",
"[	c #D6D6D6",
"}	c #D7D7D7",
"|	c #A6A6A6",
"1	c #FCFCFC",
"2	c #757575",
"3	c #575757",
"                    ",
"                    ",
"                    ",
"                    ",
"                    ",
"     .+@####@+$     ",
"     +%&    *%=     ",
"     @&      -@     ",
"     #        #     ",
"     #        #     ",
"     #        #     ",
"     #        #     ",
"     @*      -@     ",
"     +%-    -;=     ",
"     .+@####@=$     ",
"                    ",
"                    ",
"                    ",
"                    ",
"                    ",
"                    ",
"                    ",
"      >,'))',>      ",
"    !~{{{{{{{{~!    ",
"   ]^{{{{{{{{{{^]   ",
"  !^{{{{{{{{{{{{^!  ",
"  /{{(_@####@_:{{~  ",
" >{{{_<[{{{{}<_{{{> ",
" ,{{{@[{{{{{{}@{{{| ",
" '{{{#{{{{{{{{#{{{' ",
" ){{{#{{{{{{{{#{{{) ",
" ){{{#{{{{{{{{#{{{) ",
" '{{{#{{{{{{{{#{{{' ",
" ,{{{@}{{{{{{}@{{{| ",
" >{{{_<}{{{{}1_{{{2 ",
"  /{{(_@####@_:{{~  ",
"  3^{{{{{{{{{{{{^!  ",
"   ]^{{{{{{{{{{^]   ",
"    !/{{{{{{{{/!    ",
"      >|'))'|2      ",
"                    ",
"                    "};
