/* XPM */
static char * menuButton_xpm[] = {
"20 42 14 1",
" 	c #000000",
".	c #777777",
"+	c #A8A8A8",
"@	c #BDBDBD",
"#	c #C5C5C5",
"$	c #5B5B5B",
"%	c #B6B6B6",
"&	c #C9C9C9",
"*	c #727272",
"=	c #C4C4C4",
"-	c #B5B5B5",
";	c #A6A6A6",
">	c #757575",
",	c #575757",
"                    ",
"                    ",
"                    ",
"                    ",
"                    ",
"                    ",
"                    ",
"                    ",
"                    ",
"                    ",
"                    ",
"                    ",
"                    ",
"                    ",
"                    ",
"                    ",
"                    ",
"                    ",
"                    ",
"                    ",
"                    ",
"                    ",
"      .+@##@+.      ",
"    $%&&&&&&&&%$    ",
"   *=&&&&&&&&&&=*   ",
"  $=&&&&&&&&&&&&=$  ",
"  -&&&&&&&&&&&&&&%  ",
" .&&&&&&&&&&&&&&&&. ",
" +&&&&&&&&&&&&&&&&; ",
" @&&&&&&&&&&&&&&&&@ ",
" #&&&&&&&&&&&&&&&&# ",
" #&&&&&&&&&&&&&&&&# ",
" @&&&&&&&&&&&&&&&&@ ",
" +&&&&&&&&&&&&&&&&; ",
" .&&&&&&&&&&&&&&&&> ",
"  -&&&&&&&&&&&&&&%  ",
"  ,=&&&&&&&&&&&&=$  ",
"   *=&&&&&&&&&&=*   ",
"    $-&&&&&&&&-$    ",
"      .;@##@;>      ",
"                    ",
"                    "};
