/* XPM */
static char * restore_xpm[] = {
"20 42 72 1",
" 	c #000000",
".	c #888888",
"+	c #DBDBDB",
"@	c #E1E1E1",
"#	c #E0E0E0",
"$	c #B4B4B4",
"%	c #9B9B9B",
"&	c #FEFEFE",
"*	c #EFEFEF",
"=	c #E9E9E9",
"-	c #EAEAEA",
";	c #FDFDFD",
">	c #DDDDDD",
",	c #848484",
"'	c #F2F2F2",
")	c #909090",
"!	c #A2A2A2",
"~	c #C9C9C9",
"{	c #FFFFFF",
"]	c #2D2D2D",
"^	c #FBFBFB",
"/	c #D1D1D1",
"(	c #EBEBEB",
"_	c #AFAFAF",
":	c #353535",
"<	c #7A7A7A",
"[	c #FAFAFA",
"}	c #F6F6F6",
"|	c #F7F7F7",
"1	c #C5C5C5",
"2	c #757575",
"3	c #4B4B4B",
"4	c #BABABA",
"5	c #EEEEEE",
"6	c #F9F9F9",
"7	c #7C7C7C",
"8	c #ECECEC",
"9	c #CECECE",
"0	c #CBCBCB",
"a	c #D6D6D6",
"b	c #BBBBBB",
"c	c #DADADA",
"d	c #F3F3F3",
"e	c #F5F5F5",
"f	c #F1F1F1",
"g	c #777777",
"h	c #A8A8A8",
"i	c #BDBDBD",
"j	c #5B5B5B",
"k	c #B6B6B6",
"l	c #727272",
"m	c #C4C4C4",
"n	c #B5B5B5",
"o	c #CACACA",
"p	c #D8D8D8",
"q	c #D9D9D9",
"r	c #D3D3D3",
"s	c #DCDCDC",
"t	c #D5D5D5",
"u	c #A6A6A6",
"v	c #E4E4E4",
"w	c #F8F8F8",
"x	c #F0F0F0",
"y	c #DFDFDF",
"z	c #EDEDED",
"A	c #E6E6E6",
"B	c #D4D4D4",
"C	c #FCFCFC",
"D	c #D0D0D0",
"E	c #E8E8E8",
"F	c #D2D2D2",
"G	c #575757",
"                    ",
"                    ",
"                    ",
"                    ",
"                    ",
"                    ",
"                    ",
"        .+@@#$      ",
"       %&*==-;>     ",
"      ,'@    )&     ",
"    !;&&~     {]    ",
"    ^/ =(    _;     ",
"    {: <;[}|}&1     ",
"    &2  345617      ",
"    86900a&b        ",
"    ]cdeefb         ",
"                    ",
"                    ",
"                    ",
"                    ",
"                    ",
"                    ",
"      ghi11ihg      ",
"    jk~~~~~~~~kj    ",
"   lm~~~~~~~~~~ml   ",
"  jm~~~~~~~~~~~~mj  ",
"  n~~~~~~opqq0~~~k  ",
" g~~~~~~({&&&{d~~~g ",
" h~~~~~r{s~~~t&@~~u ",
" i~~~v[;;~~~~~wx~~i ",
" 1~~y&z*&~~~~~[z~~1 ",
" 1~~ed~0&}AAAd&r~~1 ",
" i~~|f~~B}C{Cw+~~~i ",
" h~~(;D~~~E&o~~~~~u ",
" g~~o|{{{{&@~~~~~~2 ",
"  n~~~0FFD~~~~~~~k  ",
"  Gm~~~~~~~~~~~~mj  ",
"   lm~~~~~~~~~~ml   ",
"    jn~~~~~~~~nj    ",
"      gui11iu2      ",
"                    ",
"                    "};
