/* XPM */
static char * restore_xpm[] = {
"20 42 36 1",
" 	c #000000",
".	c #C5C5C5",
"+	c #F9F9F9",
"@	c #FFFFFF",
"#	c #E9E9E9",
"$	c #FDFDFD",
"%	c #C8C8C8",
"&	c #616161",
"*	c #E8E8E8",
"=	c #676767",
"-	c #6A6A6A",
";	c #C4C4C4",
">	c #C7C7C7",
",	c #CACACA",
"'	c #646464",
")	c #C3C3C3",
"!	c #E7E7E7",
"~	c #777777",
"{	c #A8A8A8",
"]	c #BDBDBD",
"^	c #5B5B5B",
"/	c #B6B6B6",
"(	c #C9C9C9",
"_	c #727272",
":	c #B5B5B5",
"<	c #FCFCFC",
"[	c #F6F6F6",
"}	c #FEFEFE",
"|	c #EAEAEA",
"1	c #D0D0D0",
"2	c #F5F5F5",
"3	c #D1D1D1",
"4	c #D2D2D2",
"5	c #A6A6A6",
"6	c #757575",
"7	c #575757",
"                    ",
"                    ",
"                    ",
"                    ",
"                    ",
"       .+@@+.       ",
"      #$%&&%$*      ",
"     .$=    -$;     ",
"     +>      ,+     ",
"     @&      '@     ",
"     @&      '@     ",
"     +%      ,+     ",
"     ;$-    -$)     ",
"      *$,'&,$!      ",
"       ;+@@+)       ",
"                    ",
"                    ",
"                    ",
"                    ",
"                    ",
"                    ",
"                    ",
"      ~{]..]{~      ",
"    ^/((((((((/^    ",
"   _;((((((((((;_   ",
"  ^;((((((((((((;^  ",
"  :((((#<@@<#((((/  ",
" ~(((([}|11|}2((((~ ",
" {(((#}3((((4}*(((5 ",
" ](((<#((((((|<(((] ",
" .(((@1((((((1@(((. ",
" .(((@1((((((1@(((. ",
" ](((<|((((((|<(((] ",
" {(((*}4((((4}*(((5 ",
" ~((((2}|11|}2((((6 ",
"  :((((*<@@<*((((/  ",
"  7;((((((((((((;^  ",
"   _;((((((((((;_   ",
"    ^:((((((((:^    ",
"      ~5]..]56      ",
"                    ",
"                    "};
