/* XPM */
static char * rolldown_xpm[] = {
"20 42 30 1",
" 	c #000000",
".	c #D3D3D3",
"+	c #FFFFFF",
"@	c #A4A4A4",
"#	c #AEAEAE",
"$	c #AFAFAF",
"%	c #FEFEFE",
"&	c #B8B8B8",
"*	c #B4B4B4",
"=	c #BABABA",
"-	c #B5B5B5",
";	c #777777",
">	c #A8A8A8",
",	c #BDBDBD",
"'	c #C5C5C5",
")	c #5B5B5B",
"!	c #B6B6B6",
"~	c #C9C9C9",
"{	c #727272",
"]	c #C4C4C4",
"^	c #EDEDED",
"/	c #A6A6A6",
"(	c #DEDEDE",
"_	c #E1E1E1",
":	c #E2E2E2",
"<	c #E4E4E4",
"[	c #E3E3E3",
"}	c #E5E5E5",
"|	c #757575",
"1	c #575757",
"                    ",
"                    ",
"                    ",
"                    ",
"                    ",
"                    ",
"     .++++++++.     ",
"                    ",
"     @#      #@     ",
"     $%&    &%$     ",
"      *%=  -%=      ",
"       *%=-%=       ",
"        &%%&        ",
"         ##         ",
"                    ",
"                    ",
"                    ",
"                    ",
"                    ",
"                    ",
"                    ",
"                    ",
"      ;>,'',>;      ",
"    )!~~~~~~~~!)    ",
"   {]~~~~~~~~~~]{   ",
"  )]~~~~~~~~~~~~])  ",
"  -~~~~~~~~~~~~~~!  ",
" ;~~~~~~~~~~~~~~~~; ",
" >~~~^++++++++^~~~/ ",
" ,~~~~~~~~~~~~~~~~, ",
" '~~~(_~~~~~~_(~~~' ",
" '~~~:+<~~~~<+:~~~' ",
" ,~~~~[%}~~[%}~~~~, ",
" >~~~~~[%}[%}~~~~~/ ",
" ;~~~~~~<++<~~~~~~| ",
"  -~~~~~~__~~~~~~!  ",
"  1]~~~~~~~~~~~~])  ",
"   {]~~~~~~~~~~]{   ",
"    )-~~~~~~~~-)    ",
"      ;/,'',/|      ",
"                    ",
"                    "};
