/* XPM */
static char * close_xpm[] = {
"28 42 44 1",
" 	c #FFFFFF",
".	c #5E5E5E",
"+	c #676767",
"@	c #FCFCFC",
"#	c #8E8E8E",
"$	c #383838",
"%	c #FEFEFE",
"&	c #919191",
"*	c #000000",
"=	c #5C5C5C",
"-	c #8A8A8A",
";	c #616161",
">	c #8D8D8D",
",	c #565656",
"'	c #FBFBFB",
")	c #8C8C8C",
"!	c #575757",
"~	c #898989",
"{	c #878787",
"]	c #868686",
"^	c #888888",
"/	c #5F5F5F",
"(	c #363636",
"_	c #E9E9E9",
":	c #CDCDCD",
"<	c #BABABA",
"[	c #B1B1B1",
"}	c #F3F3F3",
"|	c #C1C1C1",
"1	c #ADADAD",
"2	c #EBEBEB",
"3	c #B2B2B2",
"4	c #B3B3B3",
"5	c #C2C2C2",
"6	c #323232",
"7	c #525252",
"8	c #535353",
"9	c #333333",
"0	c #4D4D4D",
"a	c #515151",
"b	c #4C4C4C",
"c	c #CECECE",
"d	c #EAEAEA",
"e	c #F4F4F4",
"                            ",
"                            ",
"                            ",
"                            ",
"                            ",
"           .+@     #$%      ",
"           &*=@   -*;       ",
"            >*,' )*!'       ",
"             ~*={*=@        ",
"              )**!'         ",
"              )**,'         ",
"             ~*=]*=@        ",
"            )*!' )*,'       ",
"           &*=@   ^*;       ",
"           /+@     >(%      ",
"                            ",
"                            ",
"                            ",
"                            ",
"                            ",
"                            ",
"                            ",
"            _:<[[<:_        ",
"          }|11111111|}      ",
"         23111111111132     ",
"        }31111111111114}    ",
"        511671111118911|    ",
"       _1117*011110*7111_   ",
"       :1111a*b11a*b1111c   ",
"       <111110*00*011111<   ",
"       [111111a**b111111[   ",
"       [111111a**b111111[   ",
"       <111110*00*011111<   ",
"       :1111a*b11a*b1111c   ",
"       _1117*011110*7111d   ",
"        511671111117611|    ",
"        e41111111111114}    ",
"         24111111111142     ",
"          }5111111115}      ",
"            _c<[[<cd        ",
"                            ",
"                            "};
