/* XPM */
static char * depth_xpm[] = {
"20 42 33 1",
" 	c #FFFFFF",
".	c #C7C7C7",
"+	c #BFBFBF",
"@	c #151515",
"#	c #C2C2C2",
"$	c #161616",
"%	c #BDBDBD",
"&	c #C3C3C3",
"*	c #A2A2A2",
"=	c #101010",
"-	c #C8C8C8",
";	c #E9E9E9",
">	c #CDCDCD",
",	c #BABABA",
"'	c #B1B1B1",
")	c #F3F3F3",
"!	c #C1C1C1",
"~	c #ADADAD",
"{	c #EBEBEB",
"]	c #B2B2B2",
"^	c #B3B3B3",
"/	c #878787",
"(	c #828282",
"_	c #0E0E0E",
":	c #848484",
"<	c #0F0F0F",
"[	c #808080",
"}	c #CECECE",
"|	c #6E6E6E",
"1	c #0B0B0B",
"2	c #EAEAEA",
"3	c #888888",
"4	c #F4F4F4",
"                    ",
"                    ",
"                    ",
"                    ",
"                    ",
"         ..         ",
"        +@@+        ",
"       #$%&$%       ",
"      #$%  &$%      ",
"     *=+    +=*     ",
"     *=+    +=*     ",
"      &$%  #$%      ",
"       &$%#$%       ",
"        +@@+        ",
"         --         ",
"                    ",
"                    ",
"                    ",
"                    ",
"                    ",
"                    ",
"                    ",
"      ;>,'',>;      ",
"    )!~~~~~~~~!)    ",
"   {]~~~~~~~~~~]{   ",
"  )]~~~~~~~~~~~~^)  ",
"  #~~~~~~//~~~~~~!  ",
" ;~~~~~~(__(~~~~~~; ",
" >~~~~~:<[:<[~~~~~} ",
" ,~~~~:<[~~:<[~~~~, ",
" '~~~|1(~~~~(1|~~~' ",
" '~~~|1(~~~~(1|~~~' ",
" ,~~~~:<[~~:<[~~~~, ",
" >~~~~~:<[:<[~~~~~} ",
" ;~~~~~~(__(~~~~~~2 ",
"  #~~~~~~33~~~~~~!  ",
"  4^~~~~~~~~~~~~^)  ",
"   {^~~~~~~~~~~^{   ",
"    )#~~~~~~~~#)    ",
"      ;},'',}2      ",
"                    ",
"                    "};
