/* XPM */
static char * hideA_xpm[] = {
"20 42 3 1",
" 	c #FFFFFF",
".	c #000000",
"+	c #ADADAD",
"                    ",
"                    ",
"                    ",
"                    ",
"                    ",
"     ....  ....     ",
"     ....  ....     ",
"     ..      ..     ",
"     ..      ..     ",
"                    ",
"                    ",
"     ..      ..     ",
"     ..      ..     ",
"     ....  ....     ",
"     ....  ....     ",
"                    ",
"                    ",
"                    ",
"                    ",
"                    ",
"                    ",
"                    ",
"                    ",
"       ++++++       ",
"     ++++++++++     ",
"    ++++++++++++    ",
"   ++....++....++   ",
"   ++....++....++   ",
"  +++..++++++..+++  ",
"  +++..++++++..+++  ",
"  ++++++++++++++++  ",
"  ++++++++++++++++  ",
"  +++..++++++..+++  ",
"  +++..++++++..+++  ",
"   ++....++....++   ",
"   ++....++....++   ",
"    ++++++++++++    ",
"     ++++++++++     ",
"       ++++++       ",
"                    ",
"                    ",
"                    "};
