/* XPM */
static char * hide_xpm[] = {
"20 42 75 1",
" 	c #FFFFFF",
".	c #343434",
"+	c #F0F0F0",
"@	c #C3C3C3",
"#	c #1F1F1F",
"$	c #EBEBEB",
"%	c #D7D7D7",
"&	c #898989",
"*	c #888888",
"=	c #999999",
"-	c #EFEFEF",
";	c #B6B6B6",
">	c #0E0E0E",
",	c #D8D8D8",
"'	c #DEDEDE",
")	c #ABABAB",
"!	c #AAAAAA",
"~	c #8B8B8B",
"{	c #303030",
"]	c #989898",
"^	c #6A6A6A",
"/	c #EEEEEE",
"(	c #8A8A8A",
"_	c #7F7F7F",
":	c #A9A9A9",
"<	c #808080",
"[	c #2F2F2F",
"}	c #696969",
"|	c #777777",
"1	c #B8B8B8",
"2	c #212121",
"3	c #BFBFBF",
"4	c #323232",
"5	c #E9E9E9",
"6	c #CDCDCD",
"7	c #BABABA",
"8	c #B1B1B1",
"9	c #F3F3F3",
"0	c #C1C1C1",
"a	c #ADADAD",
"b	c #B0B0B0",
"c	c #B2B2B2",
"d	c #8E8E8E",
"e	c #727272",
"f	c #B3B3B3",
"g	c #C2C2C2",
"h	c #A6A6A6",
"i	c #2B2B2B",
"j	c #6B6B6B",
"k	c #ACACAC",
"l	c #707070",
"m	c #5C5C5C",
"n	c #686868",
"o	c #A2A2A2",
"p	c #2A2A2A",
"q	c #494949",
"r	c #A4A4A4",
"s	c #7B7B7B",
"t	c #737373",
"u	c #5E5E5E",
"v	c #636363",
"w	c #181818",
"x	c #CECECE",
"y	c #565656",
"z	c #6E6E6E",
"A	c #2D2D2D",
"B	c #676767",
"C	c #717171",
"D	c #202020",
"E	c #EAEAEA",
"F	c #515151",
"G	c #646464",
"H	c #6C6C6C",
"I	c #F4F4F4",
"J	c #A8A8A8",
"                    ",
"                    ",
"                    ",
"                    ",
"    .+              ",
"    @#$%&***=-      ",
"     ;>,')!!~{-     ",
"     ]^#/    (=     ",
"     _:@#/   :_     ",
"     _: @#/  :_     ",
"     _:  @#/ !_     ",
"     _:   @#/'<     ",
"     ](    @#,,     ",
"     -[(!!!!}>$     ",
"      -=||||=12-    ",
"              34    ",
"                    ",
"                    ",
"                    ",
"                    ",
"                    ",
"                    ",
"      56788765      ",
"    90aaaaaaaa09    ",
"   $baaaaaaaaaac$   ",
"  9deaaaaaaaaaaaf9  ",
"  ghijklmmmmnoaaa0  ",
" 5aahpqrstttu2oaaa5 ",
" 6aaavw^aaaaaunaaax ",
" 7aaayzA^aaaatyaaa7 ",
" 8aaaythA^aaatyaaa8 ",
" 8aaaytahA^aatyaaa8 ",
" 7aaaytaahA^asyaaa7 ",
" 6aaaBuaaahA^rCaaax ",
" 5aaaoDutttzwqkaaaE ",
"  gaaaonFFFFGpHaa0  ",
"  Ifaaaaaaaaahief9  ",
"   $faaaaaaaaaJr$   ",
"    9gaaaaaaaag9    ",
"      5x7887xE      ",
"                    ",
"                    "};
