/* XPM */
static char * maximize_xpm[] = {
"20 42 42 1",
" 	c #FFFFFF",
".	c #F8F8F8",
"+	c #757575",
"@	c #191919",
"#	c #000000",
"$	c #767676",
"%	c #F9F9F9",
"&	c #4A4A4A",
"*	c #E4E4E4",
"=	c #E3E3E3",
"-	c #494949",
";	c #777777",
">	c #E2E2E2",
",	c #1A1A1A",
"'	c #484848",
")	c #787878",
"!	c #E9E9E9",
"~	c #CDCDCD",
"{	c #BABABA",
"]	c #B1B1B1",
"^	c #F3F3F3",
"/	c #C1C1C1",
"(	c #ADADAD",
"_	c #EBEBEB",
":	c #B2B2B2",
"<	c #B3B3B3",
"[	c #C2C2C2",
"}	c #A8A8A8",
"|	c #4F4F4F",
"1	c #111111",
"2	c #505050",
"3	c #A9A9A9",
"4	c #323232",
"5	c #9B9B9B",
"6	c #9A9A9A",
"7	c #515151",
"8	c #999999",
"9	c #121212",
"0	c #CECECE",
"a	c #313131",
"b	c #EAEAEA",
"c	c #F4F4F4",
"                    ",
"                    ",
"                    ",
"                    ",
"                    ",
"     .+@####@$%     ",
"     +&*    =-;     ",
"     @*      >,     ",
"     #        #     ",
"     #        #     ",
"     #        #     ",
"     #        #     ",
"     @=      >,     ",
"     $->    >')     ",
"     .$,####,)%     ",
"                    ",
"                    ",
"                    ",
"                    ",
"                    ",
"                    ",
"                    ",
"      !~{]]{~!      ",
"    ^/((((((((/^    ",
"   _:((((((((((:_   ",
"  ^:((((((((((((<^  ",
"  [((}|1####123((/  ",
" !(((|45((((647(((! ",
" ~(((15((((((89(((0 ",
" {(((#((((((((#((({ ",
" ](((#((((((((#(((] ",
" ](((#((((((((#(((] ",
" {(((#((((((((#((({ ",
" ~(((16((((((89(((0 ",
" !(((248((((8a7(((b ",
"  [((}29####973((/  ",
"  c<((((((((((((<^  ",
"   _<((((((((((<_   ",
"    ^[(((((((([^    ",
"      !0{]]{0b      ",
"                    ",
"                    "};
