/* XPM */
static char * maximize_xpm[] = {
"20 42 52 1",
" 	c #FFFFFF",
".	c #E9E9E9",
"+	c #8F8F8F",
"@	c #777777",
"#	c #939393",
"$	c #EFEFEF",
"%	c #EAEAEA",
"&	c #1D1D1D",
"*	c #676767",
"=	c #888888",
"-	c #606060",
";	c #252525",
">	c #F2F2F2",
",	c #909090",
"'	c #656565",
")	c #545454",
"!	c #A2A2A2",
"~	c #787878",
"{	c #878787",
"]	c #959595",
"^	c #5D5D5D",
"/	c #4C4C4C",
"(	c #A6A6A6",
"_	c #F0F0F0",
":	c #262626",
"<	c #525252",
"[	c #4B4B4B",
"}	c #303030",
"|	c #F7F7F7",
"1	c #F3F3F3",
"2	c #A3A3A3",
"3	c #A7A7A7",
"4	c #CDCDCD",
"5	c #BABABA",
"6	c #B1B1B1",
"7	c #C1C1C1",
"8	c #ADADAD",
"9	c #EBEBEB",
"0	c #B2B2B2",
"a	c #B3B3B3",
"b	c #C2C2C2",
"c	c #686868",
"d	c #5C5C5C",
"e	c #696969",
"f	c #181818",
"g	c #3D3D3D",
"h	c #515151",
"i	c #3C3C3C",
"j	c #191919",
"k	c #CECECE",
"l	c #565656",
"m	c #F4F4F4",
"                    ",
"                    ",
"                    ",
"                    ",
"                    ",
"    .+@@@@@@@@#$    ",
"   %&*========-;>   ",
"   ,'          )!   ",
"   ~{          ~{   ",
"   ~{          ~{   ",
"   ~{          ~{   ",
"   ~{          @=   ",
"   ]^          /(   ",
"   _:<@@@@@@@@[}|   ",
"    12========3|    ",
"                    ",
"                    ",
"                    ",
"                    ",
"                    ",
"                    ",
"                    ",
"      .456654.      ",
"    178888888871    ",
"   90888888888809   ",
"  10888888888888a1  ",
"  b82cdddddddde287  ",
" .82fghhhhhhhhij28. ",
" 48cg8888888888ie8k ",
" 58ll8888888888ll85 ",
" 68ll8888888888ll86 ",
" 68ll8888888888ll86 ",
" 58ll8888888888ll85 ",
" 48ci8888888888ie8k ",
" .82jiddddddddij28% ",
"  b82ehhhhhhhhe287  ",
"  ma888888888888a1  ",
"   9a8888888888a9   ",
"    1b88888888b1    ",
"      .k5665k%      ",
"                    ",
"                    "};
