/* XPM */
static char * menuButton_xpm[] = {
"20 42 15 1",
" 	c #FFFFFF",
".	c #E9E9E9",
"+	c #CDCDCD",
"@	c #BABABA",
"#	c #B1B1B1",
"$	c #F3F3F3",
"%	c #C1C1C1",
"&	c #ADADAD",
"*	c #EBEBEB",
"=	c #B2B2B2",
"-	c #B3B3B3",
";	c #C2C2C2",
">	c #CECECE",
",	c #EAEAEA",
"'	c #F4F4F4",
"                    ",
"                    ",
"                    ",
"                    ",
"                    ",
"                    ",
"                    ",
"                    ",
"                    ",
"                    ",
"                    ",
"                    ",
"                    ",
"                    ",
"                    ",
"                    ",
"                    ",
"                    ",
"                    ",
"                    ",
"                    ",
"                    ",
"      .+@##@+.      ",
"    $%&&&&&&&&%$    ",
"   *=&&&&&&&&&&=*   ",
"  $=&&&&&&&&&&&&-$  ",
"  ;&&&&&&&&&&&&&&%  ",
" .&&&&&&&&&&&&&&&&. ",
" +&&&&&&&&&&&&&&&&> ",
" @&&&&&&&&&&&&&&&&@ ",
" #&&&&&&&&&&&&&&&&# ",
" #&&&&&&&&&&&&&&&&# ",
" @&&&&&&&&&&&&&&&&@ ",
" +&&&&&&&&&&&&&&&&> ",
" .&&&&&&&&&&&&&&&&, ",
"  ;&&&&&&&&&&&&&&%  ",
"  '-&&&&&&&&&&&&-$  ",
"   *-&&&&&&&&&&-*   ",
"    $;&&&&&&&&;$    ",
"      .>@##@>,      ",
"                    ",
"                    "};
