/* XPM */
static char * minimize_xpm[] = {
"20 42 21 1",
" 	c #FFFFFF",
".	c #D0D0D0",
"+	c #888888",
"@	c #777777",
"#	c #E9E9E9",
"$	c #CDCDCD",
"%	c #BABABA",
"&	c #B1B1B1",
"*	c #F3F3F3",
"=	c #C1C1C1",
"-	c #ADADAD",
";	c #EBEBEB",
">	c #B2B2B2",
",	c #B3B3B3",
"'	c #C2C2C2",
")	c #CECECE",
"!	c #8D8D8D",
"~	c #5C5C5C",
"{	c #515151",
"]	c #EAEAEA",
"^	c #F4F4F4",
"                    ",
"                    ",
"                    ",
"                    ",
"                    ",
"                    ",
"                    ",
"                    ",
"                    ",
"     .++++++++.     ",
"     .@@@@@@@@.     ",
"                    ",
"                    ",
"                    ",
"                    ",
"                    ",
"                    ",
"                    ",
"                    ",
"                    ",
"                    ",
"                    ",
"      #$%&&%$#      ",
"    *=--------=*    ",
"   ;>---------->;   ",
"  *>------------,*  ",
"  '--------------=  ",
" #----------------# ",
" $----------------) ",
" %----------------% ",
" &---!~~~~~~~~!---& ",
" &---!{{{{{{{{!---& ",
" %----------------% ",
" $----------------) ",
" #----------------] ",
"  '--------------=  ",
"  ^,------------,*  ",
"   ;,----------,;   ",
"    *'--------'*    ",
"      #)%&&%)]      ",
"                    ",
"                    "};
