/* XPM */
static char * minimize_xpm[] = {
"20 42 24 1",
" 	c #FFFFFF",
".	c #969696",
"+	c #888888",
"@	c #979797",
"#	c #8E8E8E",
"$	c #777777",
"%	c #E9E9E9",
"&	c #CDCDCD",
"*	c #BABABA",
"=	c #B1B1B1",
"-	c #F3F3F3",
";	c #C1C1C1",
">	c #ADADAD",
",	c #EBEBEB",
"'	c #B2B2B2",
")	c #B3B3B3",
"!	c #C2C2C2",
"~	c #CECECE",
"{	c #666666",
"]	c #5C5C5C",
"^	c #606060",
"/	c #515151",
"(	c #EAEAEA",
"_	c #F4F4F4",
"                    ",
"                    ",
"                    ",
"                    ",
"                    ",
"                    ",
"                    ",
"                    ",
"                    ",
"     .++++++++@     ",
"     #$$$$$$$$#     ",
"                    ",
"                    ",
"                    ",
"                    ",
"                    ",
"                    ",
"                    ",
"                    ",
"                    ",
"                    ",
"                    ",
"      %&*==*&%      ",
"    -;>>>>>>>>;-    ",
"   ,'>>>>>>>>>>',   ",
"  -'>>>>>>>>>>>>)-  ",
"  !>>>>>>>>>>>>>>;  ",
" %>>>>>>>>>>>>>>>>% ",
" &>>>>>>>>>>>>>>>>~ ",
" *>>>>>>>>>>>>>>>>* ",
" =>>>{]]]]]]]]{>>>= ",
" =>>>^////////^>>>= ",
" *>>>>>>>>>>>>>>>>* ",
" &>>>>>>>>>>>>>>>>~ ",
" %>>>>>>>>>>>>>>>>( ",
"  !>>>>>>>>>>>>>>;  ",
"  _)>>>>>>>>>>>>)-  ",
"   ,)>>>>>>>>>>),   ",
"    -!>>>>>>>>!-    ",
"      %~*==*~(      ",
"                    ",
"                    "};
