/* XPM */
static char * restore_xpm[] = {
"20 42 106 2",
"  	c #FFFFFF",
". 	c #E1E1E1",
"+ 	c #939393",
"@ 	c #888888",
"# 	c #8B8B8B",
"$ 	c #C3C3C3",
"% 	c #D6D6D6",
"& 	c #161616",
"* 	c #686868",
"= 	c #777777",
"- 	c #747474",
"; 	c #242424",
"> 	c #909090",
", 	c #E3E3E3",
"' 	c #5E5E5E",
") 	c #898989",
"! 	c #DDDDDD",
"~ 	c #171717",
"{ 	c #D1D1D1",
"] 	c #232323",
"^ 	c #1C1C1C",
"/ 	c #181818",
"( 	c #ADADAD",
"_ 	c #040404",
": 	c #FCFCFC",
"< 	c #373737",
"[ 	c #A2A2A2",
"} 	c #737373",
"| 	c #C7C7C7",
"1 	c #FBFBFB",
"2 	c #E8E8E8",
"3 	c #262626",
"4 	c #3E3E3E",
"5 	c #505050",
"6 	c #494949",
"7 	c #4E4E4E",
"8 	c #B1B1B1",
"9 	c #121212",
"0 	c #EAEAEA",
"a 	c #F7F7F7",
"b 	c #BDBDBD",
"c 	c #696969",
"d 	c #3F3F3F",
"e 	c #E7E7E7",
"f 	c #6F6F6F",
"g 	c #434343",
"h 	c #A6A6A6",
"i 	c #AAAAAA",
"j 	c #9B9B9B",
"k 	c #1B1B1B",
"l 	c #BCBCBC",
"m 	c #949494",
"n 	c #595959",
"o 	c #555555",
"p 	c #616161",
"q 	c #E9E9E9",
"r 	c #CDCDCD",
"s 	c #BABABA",
"t 	c #F3F3F3",
"u 	c #C1C1C1",
"v 	c #EBEBEB",
"w 	c #B2B2B2",
"x 	c #B3B3B3",
"y 	c #C2C2C2",
"z 	c #ACACAC",
"A 	c #989898",
"B 	c #969696",
"C 	c #727272",
"D 	c #0D0D0D",
"E 	c #151515",
"F 	c #090909",
"G 	c #5C5C5C",
"H 	c #A0A0A0",
"I 	c #0E0E0E",
"J 	c #919191",
"K 	c #9D9D9D",
"L 	c #CECECE",
"M 	c #828282",
"N 	c #3B3B3B",
"O 	c #484848",
"P 	c #656565",
"Q 	c #8C8C8C",
"R 	c #101010",
"S 	c #6D6D6D",
"T 	c #666666",
"U 	c #1E1E1E",
"V 	c #535353",
"W 	c #4D4D4D",
"X 	c #7D7D7D",
"Y 	c #7F7F7F",
"Z 	c #111111",
"` 	c #9F9F9F",
" .	c #4C4C4C",
"..	c #9E9E9E",
"+.	c #303030",
"@.	c #2A2A2A",
"#.	c #474747",
"$.	c #272727",
"%.	c #A3A3A3",
"&.	c #797979",
"*.	c #4B4B4B",
"=.	c #080808",
"-.	c #0C0C0C",
";.	c #191919",
">.	c #A1A1A1",
",.	c #F4F4F4",
"                                        ",
"                                        ",
"                                        ",
"                                        ",
"                                        ",
"                                        ",
"                                        ",
"                . + @ @ # $             ",
"              % & * = = - ; >           ",
"            , ' )         ! ~           ",
"        { ] ^ / (           _ :         ",
"        < [   = }         | ]           ",
"        _ 1   2 3 4 5 6 7 & 8           ",
"        9 0     a b c d 8 e             ",
"        f g h i i j k l                 ",
"        : m n o o p l                   ",
"                                        ",
"                                        ",
"                                        ",
"                                        ",
"                                        ",
"                                        ",
"            q r s 8 8 s r q             ",
"        t u ( ( ( ( ( ( ( ( u t         ",
"      v w ( ( ( ( ( ( ( ( ( ( w v       ",
"    t w ( ( ( ( ( ( ( ( ( ( ( ( x t     ",
"    y ( ( ( ( ( ( z A B B i ( ( ( u     ",
"  q ( ( ( ( ( ( C D E ~ ~ F G ( ( ( q   ",
"  r ( ( ( ( ( H I J ( ( ( K ~ ) ( ( L   ",
"  s ( ( ( M N ] ] ( ( ( ( ( O P ( ( s   ",
"  8 ( ( Q R S T U ( ( ( ( ( 4 S ( ( 8   ",
"  8 ( ( V n ( i U W X Y Y G Z ` ( ( 8   ",
"  s ( (  .p ( ( ..7 +.D @.#.+ ( ( ( s   ",
"  r ( ( C $.%.( ( ( &.& z ( ( ( ( ( L   ",
"  q ( ( z *.=.-.-.F ;.@ ( ( ( ( ( ( 0   ",
"    y ( ( ( i >.>.%.( ( ( ( ( ( ( u     ",
"    ,.x ( ( ( ( ( ( ( ( ( ( ( ( x t     ",
"      v x ( ( ( ( ( ( ( ( ( ( x v       ",
"        t y ( ( ( ( ( ( ( ( y t         ",
"            q L s 8 8 s L 0             ",
"                                        ",
"                                        "};
