/* XPM */
static char * restore_xpm[] = {
"20 42 57 1",
" 	c #FFFFFF",
".	c #B1B1B1",
"+	c #404040",
"@	c #0B0B0B",
"#	c #414141",
"$	c #787878",
"%	c #282828",
"&	c #AEAEAE",
"*	c #F1F1F1",
"=	c #272727",
"-	c #797979",
";	c #EFEFEF",
">	c #EEEEEE",
",	c #262626",
"'	c #B3B3B3",
")	c #AFAFAF",
"!	c #ACACAC",
"~	c #424242",
"{	c #0C0C0C",
"]	c #F0F0F0",
"^	c #0E0E0E",
"/	c #0D0D0D",
"(	c #434343",
"_	c #B2B2B2",
":	c #252525",
"<	c #B4B4B4",
"[	c #7B7B7B",
"}	c #E9E9E9",
"|	c #CDCDCD",
"1	c #BABABA",
"2	c #F3F3F3",
"3	c #C1C1C1",
"4	c #ADADAD",
"5	c #EBEBEB",
"6	c #C2C2C2",
"7	c #2B2B2B",
"8	c #070707",
"9	c #2C2C2C",
"0	c #515151",
"a	c #1B1B1B",
"b	c #767676",
"c	c #A3A3A3",
"d	c #1A1A1A",
"e	c #525252",
"f	c #A2A2A2",
"g	c #A1A1A1",
"h	c #CECECE",
"i	c #777777",
"j	c #757575",
"k	c #2D2D2D",
"l	c #080808",
"m	c #090909",
"n	c #191919",
"o	c #7A7A7A",
"p	c #535353",
"q	c #EAEAEA",
"r	c #F4F4F4",
"                    ",
"                    ",
"                    ",
"                    ",
"                    ",
"       .+@@#.       ",
"      $%&**&=-      ",
"     .%;    >,'     ",
"     +)      !~     ",
"     {*      ]^     ",
"     /*      ]/     ",
"     #&      !(     ",
"     _=>    >:<     ",
"      -,!]*!:[      ",
"       '~{/(<       ",
"                    ",
"                    ",
"                    ",
"                    ",
"                    ",
"                    ",
"                    ",
"      }|1..1|}      ",
"    234444444432    ",
"   5_4444444444_5   ",
"  2_444444444444'2  ",
"  64444$7889$44443  ",
" }44440abccbde4444} ",
" |444$af4444gd-444h ",
" 14447i444444jk4441 ",
" .444lc444444cm444. ",
" .444mc444444cm444. ",
" 14449b444444jk4441 ",
" |444-dg4444gno444h ",
" }4444edjccjnp4444q ",
"  64444-klmko44443  ",
"  r'444444444444'2  ",
"   5'4444444444'5   ",
"    264444444462    ",
"      }h1..1hq      ",
"                    ",
"                    "};
