/* XPM */
static char * rollup_xpm[] = {
"20 42 34 1",
" 	c #FFFFFF",
".	c #9F9F9F",
"+	c #000000",
"@	c #C7C7C7",
"#	c #BFBFBF",
"$	c #151515",
"%	c #C2C2C2",
"&	c #161616",
"*	c #BDBDBD",
"=	c #C3C3C3",
"-	c #D0D0D0",
";	c #C8C8C8",
">	c #E9E9E9",
",	c #CDCDCD",
"'	c #BABABA",
")	c #B1B1B1",
"!	c #F3F3F3",
"~	c #C1C1C1",
"{	c #ADADAD",
"]	c #EBEBEB",
"^	c #B2B2B2",
"/	c #B3B3B3",
"(	c #6C6C6C",
"_	c #CECECE",
":	c #878787",
"<	c #828282",
"[	c #0E0E0E",
"}	c #848484",
"|	c #0F0F0F",
"1	c #808080",
"2	c #EAEAEA",
"3	c #8D8D8D",
"4	c #888888",
"5	c #F4F4F4",
"                    ",
"                    ",
"                    ",
"                    ",
"                    ",
"                    ",
"     .++++++++.     ",
"                    ",
"         @@         ",
"        #$$#        ",
"       %&*=&*       ",
"      %&*  =&*      ",
"     @$#    #$@     ",
"     -;      ;-     ",
"                    ",
"                    ",
"                    ",
"                    ",
"                    ",
"                    ",
"                    ",
"                    ",
"      >,'))',>      ",
"    !~{{{{{{{{~!    ",
"   ]^{{{{{{{{{{^]   ",
"  !^{{{{{{{{{{{{/!  ",
"  %{{{{{{{{{{{{{{~  ",
" >{{{{{{{{{{{{{{{{> ",
" ,{{{(++++++++({{{_ ",
" '{{{{{{{{{{{{{{{{' ",
" ){{{{{{{::{{{{{{{) ",
" ){{{{{{<[[<{{{{{{) ",
" '{{{{{}|1}|1{{{{{' ",
" ,{{{{}|1{{}|1{{{{_ ",
" >{{{:[<{{{{<[:{{{2 ",
"  %{{34{{{{{{43{{~  ",
"  5/{{{{{{{{{{{{/!  ",
"   ]/{{{{{{{{{{/]   ",
"    !%{{{{{{{{%!    ",
"      >_'))'_2      ",
"                    ",
"                    "};
