/* XPM */
static char * rolldown_xpm[] = {
"20 42 34 1",
" 	c #FFFFFF",
".	c #9F9F9F",
"+	c #000000",
"@	c #D0D0D0",
"#	c #C8C8C8",
"$	c #C7C7C7",
"%	c #151515",
"&	c #BFBFBF",
"*	c #C3C3C3",
"=	c #161616",
"-	c #BDBDBD",
";	c #C2C2C2",
">	c #E9E9E9",
",	c #CDCDCD",
"'	c #BABABA",
")	c #B1B1B1",
"!	c #F3F3F3",
"~	c #C1C1C1",
"{	c #ADADAD",
"]	c #EBEBEB",
"^	c #B2B2B2",
"/	c #B3B3B3",
"(	c #6C6C6C",
"_	c #CECECE",
":	c #8D8D8D",
"<	c #888888",
"[	c #878787",
"}	c #0E0E0E",
"|	c #828282",
"1	c #848484",
"2	c #0F0F0F",
"3	c #808080",
"4	c #EAEAEA",
"5	c #F4F4F4",
"                    ",
"                    ",
"                    ",
"                    ",
"                    ",
"                    ",
"     .++++++++.     ",
"                    ",
"     @#      #@     ",
"     $%&    &%$     ",
"      *=-  ;=-      ",
"       *=-;=-       ",
"        &%%&        ",
"         ##         ",
"                    ",
"                    ",
"                    ",
"                    ",
"                    ",
"                    ",
"                    ",
"                    ",
"      >,'))',>      ",
"    !~{{{{{{{{~!    ",
"   ]^{{{{{{{{{{^]   ",
"  !^{{{{{{{{{{{{/!  ",
"  ;{{{{{{{{{{{{{{~  ",
" >{{{{{{{{{{{{{{{{> ",
" ,{{{(++++++++({{{_ ",
" '{{{{{{{{{{{{{{{{' ",
" ){{{:<{{{{{{<:{{{) ",
" ){{{[}|{{{{|}[{{{) ",
" '{{{{123{{123{{{{' ",
" ,{{{{{123123{{{{{_ ",
" >{{{{{{|}}|{{{{{{4 ",
"  ;{{{{{{<<{{{{{{~  ",
"  5/{{{{{{{{{{{{/!  ",
"   ]/{{{{{{{{{{/]   ",
"    !;{{{{{{{{;!    ",
"      >_'))'_4      ",
"                    ",
"                    "};
