<svg width="24" height="24" viewBox="0 0 24 24" fill="none" xmlns="http://www.w3.org/2000/svg">
<path d="M24 12C24 18.6275 18.6275 24 12 24C5.37258 24 0 18.6275 0 12C0 5.37258 5.37258 0 12 0C18.6275 0 24 5.37258 24 12Z" fill="white"/>
<path fill-rule="evenodd" clip-rule="evenodd" d="M4.59302 21.4419C5.09283 18.6328 7.54734 16.5 10.5 16.5H13.5C16.4526 16.5 18.9072 18.6328 19.407 21.4419C22.2036 19.2448 24 15.8322 24 12C24 5.37258 18.6275 0 12 0C5.37258 0 0 5.37258 0 12C0 15.8322 1.79639 19.2448 4.59302 21.4419ZM16.5 9C16.5 11.4853 14.4853 13.5 12 13.5C9.51472 13.5 7.5 11.4853 7.5 9C7.5 6.51472 9.51472 4.5 12 4.5C14.4853 4.5 16.5 6.51472 16.5 9Z" fill="#256EF5"/>
</svg>
